ffmpeg version N-86330-gbd1179e Copyright (c) 2000-2017 the FFmpeg developers
  built with gcc 7.1.0 (GCC)
  configuration: --enable-gpl --enable-version3 --enable-cuda --enable-cuvid --enable-d3d11va --enable-dxva2 --enable-libmfx --enable-nvenc --enable-avisynth --enable-bzlib --enable-fontconfig --enable-frei0r --enable-gnutls --enable-iconv --enable-libass --enable-libbluray --enable-libbs2b --enable-libcaca --enable-libfreetype --enable-libgme --enable-libgsm --enable-libilbc --enable-libmodplug --enable-libmp3lame --enable-libopencore-amrnb --enable-libopencore-amrwb --enable-libopenh264 --enable-libopenjpeg --enable-libopus --enable-librtmp --enable-libsnappy --enable-libsoxr --enable-libspeex --enable-libtheora --enable-libtwolame --enable-libvidstab --enable-libvo-amrwbenc --enable-libvorbis --enable-libvpx --enable-libwavpack --enable-libwebp --enable-libx264 --enable-libx265 --enable-libxavs --enable-libxvid --enable-libzimg --enable-lzma --enable-zlib
  libavutil      55. 63.100 / 55. 63.100
  libavcodec     57. 96.101 / 57. 96.101
  libavformat    57. 72.101 / 57. 72.101
  libavdevice    57.  7.100 / 57.  7.100
  libavfilter     6. 90.100 /  6. 90.100
  libswscale      4.  7.101 /  4.  7.101
  libswresample   2.  8.100 /  2.  8.100
  libpostproc    54.  6.100 / 54.  6.100
Input #0, image2pipe, from 'pipe:':
  Duration: N/A, bitrate: N/A
    Stream #0:0: Video: ppm, rgb24, 320x240, 20 fps, 20 tbr, 20 tbn, 20 tbc
Stream mapping:
  Stream #0:0 -> #0:0 (ppm (native) -> h264 (libx264))
[libx264 @ 0000000002193780] using cpu capabilities: MMX2 SSE2Fast SSSE3 SSE4.2 AVX
[libx264 @ 0000000002193780] profile High, level 1.3
[libx264 @ 0000000002193780] 264 - core 150 r2833 df79067 - H.264/MPEG-4 AVC codec - Copyleft 2003-2017 - http://www.videolan.org/x264.html - options: cabac=1 ref=3 deblock=1:0:0 analyse=0x3:0x113 me=hex subme=7 psy=1 psy_rd=1.00:0.00 mixed_ref=1 me_range=16 chroma_me=1 trellis=1 8x8dct=1 cqm=0 deadzone=21,11 fast_pskip=1 chroma_qp_offset=-2 threads=6 lookahead_threads=1 sliced_threads=0 nr=0 decimate=1 interlaced=0 bluray_compat=0 constrained_intra=0 bframes=3 b_pyramid=2 b_adapt=1 b_bias=0 direct=1 weightb=1 open_gop=0 weightp=2 keyint=250 keyint_min=20 scenecut=40 intra_refresh=0 rc_lookahead=40 rc=abr mbtree=1 bitrate=400 ratetol=1.0 qcomp=0.60 qpmin=0 qpmax=69 qpstep=4 ip_ratio=1.40 aq=1:1.00
Output #0, mp4, to '.\mission_records\5cfad4be-0a93-49ac-9bac-484f55fb37be\video.mp4':
  Metadata:
    encoder         : Lavf57.72.101
    Stream #0:0: Video: h264 (libx264) ([33][0][0][0] / 0x0021), yuv420p, 320x240, q=-1--1, 400 kb/s, 20 fps, 10240 tbn, 20 tbc
    Metadata:
      encoder         : Lavc57.96.101 libx264
    Side data:
      cpb: bitrate max/min/avg: 0/0/400000 buffer size: 0 vbv_delay: -1
frame=   26 fps=0.0 q=-1.0 Lsize=      60kB time=00:00:01.15 bitrate= 427.8kbits/s speed=3.15x    
video:59kB audio:0kB subtitle:0kB other streams:0kB global headers:0kB muxing overhead: 1.858231%
[libx264 @ 0000000002193780] frame I:1     Avg QP:25.55  size:  9737
[libx264 @ 0000000002193780] frame P:8     Avg QP:28.45  size:  2826
[libx264 @ 0000000002193780] frame B:17    Avg QP:31.43  size:  1608
[libx264 @ 0000000002193780] consecutive B-frames:  3.8% 15.4% 34.6% 46.2%
[libx264 @ 0000000002193780] mb I  I16..4:  5.3% 66.0% 28.7%
[libx264 @ 0000000002193780] mb P  I16..4:  0.4%  5.0%  2.6%  P16..4: 33.2% 14.1% 11.6%  0.0%  0.0%    skip:33.1%
[libx264 @ 0000000002193780] mb B  I16..4:  0.2%  2.0%  0.9%  B16..8: 25.9%  8.1%  4.2%  direct: 7.9%  skip:50.7%  L0:68.7% L1:23.3% BI: 8.0%
[libx264 @ 0000000002193780] final ratefactor: 24.50
[libx264 @ 0000000002193780] 8x8 transform intra:64.4% inter:59.6%
[libx264 @ 0000000002193780] coded y,uvDC,uvAC intra: 93.5% 76.3% 60.2% inter: 33.0% 21.1% 3.2%
[libx264 @ 0000000002193780] i16 v,h,dc,p:  0% 81% 11%  8%
[libx264 @ 0000000002193780] i8 v,h,dc,ddl,ddr,vr,hd,vl,hu:  6% 12% 23%  9% 10%  7% 12%  8% 14%
[libx264 @ 0000000002193780] i4 v,h,dc,ddl,ddr,vr,hd,vl,hu: 11% 19% 18%  8% 11%  7% 11%  6%  9%
[libx264 @ 0000000002193780] i8c dc,h,v,p: 62% 22% 13%  3%
[libx264 @ 0000000002193780] Weighted P-Frames: Y:25.0% UV:12.5%
[libx264 @ 0000000002193780] ref P L0: 46.7% 17.7% 18.9% 16.3%  0.3%
[libx264 @ 0000000002193780] ref B L0: 54.2% 33.7% 12.0%
[libx264 @ 0000000002193780] ref B L1: 89.5% 10.5%
[libx264 @ 0000000002193780] kb/s:367.24
s/s speed=0.652x    frame=  181 fps= 19 q=26.0 size=     306kB time=00:00:06.40 bitrate= 391.6kbits/s speed=0.659x    frame=  190 fps= 19 q=26.0 size=     326kB time=00:00:06.85 bitrate= 390.1kbits/s speed=0.668x    frame=  199 fps= 18 q=27.0 size=     356kB time=00:00:07.30 bitrate= 399.1kbits/s speed=0.676x    frame=  208 fps= 18 q=27.0 size=     383kB time=00:00:07.75 bitrate= 404.6kbits/s speed=0.683x    frame=  217 fps= 18 q=27.0 size=     401kB time=00:00:08.20 bitrate= 400.6kbits/s speed=0.691x    frame=  220 fps= 17 q=-1.0 Lsize=     545kB time=00:00:10.85 bitrate= 411.4kbits/s speed=0.859x    
video:542kB audio:0kB subtitle:0kB other streams:0kB global headers:0kB muxing overhead: 0.599633%
[libx264 @ 00000000021d3780] frame I:2     Avg QP:22.23  size: 13792
[libx264 @ 00000000021d3780] frame P:75    Avg QP:23.38  size:  2581
[libx264 @ 00000000021d3780] frame B:143   Avg QP:27.49  size:  2327
[libx264 @ 00000000021d3780] consecutive B-frames:  3.6% 20.9% 24.5% 50.9%
[libx264 @ 00000000021d3780] mb I  I16..4:  4.8% 56.3% 38.8%
[libx264 @ 00000000021d3780] mb P  I16..4:  0.0%  1.6%  1.3%  P16..4: 53.7%  9.9% 10.2%  0.0%  0.0%    skip:23.2%
[libx264 @ 00000000021d3780] mb B  I16..4:  0.0%  2.4%  2.0%  B16..8: 33.4%  5.9%  3.1%  direct:10.3%  skip:42.9%  L0:67.6% L1:27.3% BI: 5.1%
[libx264 @ 00000000021d3780] final ratefactor: 22.40
[libx264 @ 00000000021d3780] 8x8 transform intra:54.9% inter:61.1%
[libx264 @ 00000000021d3780] coded y,uvDC,uvAC intra: 98.9% 92.0% 86.4% inter: 38.6% 25.3% 6.0%
[libx264 @ 00000000021d3780] i16 v,h,dc,p:  2% 74%  9% 14%
[libx264 @ 00000000021d3780] i8 v,h,dc,ddl,ddr,vr,hd,vl,hu:  6% 12% 20% 10% 10%  6% 13%  8% 15%
[libx264 @ 00000000021d3780] i4 v,h,dc,ddl,ddr,vr,hd,vl,hu:  8% 19% 14%  9% 11%  8% 13%  6% 12%
[libx264 @ 00000000021d3780] i8c dc,h,v,p: 59% 18% 18%  5%
[libx264 @ 00000000021d3780] Weighted P-Frames: Y:46.7% UV:28.0%
[libx264 @ 00000000021d3780] ref P L0: 30.1% 15.6% 16.4% 25.6% 12.3%
[libx264 @ 00000000021d3780] ref B L0: 39.2% 40.7% 20.1%
[libx264 @ 00000000021d3780] ref B L1: 79.6% 20.4%
[libx264 @ 00000000021d3780] kb/s:402.89
nsecutive B-frames:  5.6% 23.1% 30.0% 41.2%
[libx264 @ 00000000022a3780] mb I  I16..4:  3.7% 49.7% 46.7%
[libx264 @ 00000000022a3780] mb P  I16..4:  0.0%  1.7%  1.1%  P16..4: 54.0%  8.6% 10.8%  0.0%  0.0%    skip:23.8%
[libx264 @ 00000000022a3780] mb B  I16..4:  0.0%  2.3%  2.3%  B16..8: 32.7%  6.0%  4.0%  direct: 8.8%  skip:43.9%  L0:67.6% L1:26.3% BI: 6.1%
[libx264 @ 00000000022a3780] final ratefactor: 21.84
[libx264 @ 00000000022a3780] 8x8 transform intra:52.3% inter:60.6%
[libx264 @ 00000000022a3780] coded y,uvDC,uvAC intra: 98.8% 93.2% 88.6% inter: 37.9% 24.9% 6.1%
[libx264 @ 00000000022a3780] i16 v,h,dc,p:  0% 79% 19%  2%
[libx264 @ 00000000022a3780] i8 v,h,dc,ddl,ddr,vr,hd,vl,hu:  6% 12% 19% 10%  9%  7% 14%  8% 14%
[libx264 @ 00000000022a3780] i4 v,h,dc,ddl,ddr,vr,hd,vl,hu:  8% 19% 15%  9% 11%  7% 14%  6% 12%
[libx264 @ 00000000022a3780] i8c dc,h,v,p: 61% 18% 16%  5%
[libx264 @ 00000000022a3780] Weighted P-Frames: Y:46.6% UV:33.1%
[libx264 @ 00000000022a3780] ref P L0: 24.0% 15.1% 19.8% 26.4% 14.7%
[libx264 @ 00000000022a3780] ref B L0: 41.1% 41.8% 17.1%
[libx264 @ 00000000022a3780] ref B L1: 81.9% 18.1%
[libx264 @ 00000000022a3780] kb/s:398.07
.6%
[libx264 @ 0000000002173780] ref B L1: 87.6% 12.4%
[libx264 @ 0000000002173780] kb/s:381.98
1.2%
[libx264 @ 00000000021c3780] ref B L1: 79.7% 20.3%
[libx264 @ 00000000021c3780] kb/s:394.82
%
[libx264 @ 00000000022c3780] ref B L1: 89.3% 10.7%
[libx264 @ 00000000022c3780] kb/s:392.12
1%
[libx264 @ 0000000002163780] ref B L1: 88.1% 11.9%
[libx264 @ 0000000002163780] kb/s:384.44
264 @ 0000000002153780] Weighted P-Frames: Y:45.9% UV:33.9%
[libx264 @ 0000000002153780] ref P L0: 35.4% 13.1% 21.7% 20.4%  9.5%
[libx264 @ 0000000002153780] ref B L0: 50.8% 41.4%  7.8%
[libx264 @ 0000000002153780] ref B L1: 84.0% 16.0%
[libx264 @ 0000000002153780] kb/s:404.67
